<svg xmlns="http://www.w3.org/2000/svg" width="43" height="39" viewBox="0 0 43 39" fill="none">
<path d="M5.11701 5.07826L5.10719 5.08782L5.0975 5.0975C3.22046 6.97455 2 9.5581 2 12.5143C2 15.4371 3.22687 18.0088 5.07826 19.9116L5.08782 19.9214L5.0975 19.9311L19.6144 34.4479L21.0286 35.8622L22.4428 34.4479L36.9597 19.9311C38.8367 18.054 40.0572 15.4705 40.0572 12.5143C40.0572 9.59146 38.8303 7.01983 36.9789 5.11701L36.9693 5.10719L36.9597 5.0975C35.0826 3.22046 32.4991 2 29.5429 2C26.62 2 24.0484 3.22687 22.1456 5.07826L22.1358 5.08782L22.1261 5.0975C21.726 5.49756 21.3558 5.92971 21.0208 6.39072C20.6948 5.93903 20.3361 5.5135 19.9503 5.11701L19.9408 5.10719L19.9311 5.0975C18.054 3.22046 15.4705 2 12.5143 2C9.59146 2 7.01983 3.22687 5.11701 5.07826Z" fill="#BC335C" stroke="#DEC3CB" stroke-width="4"/>
</svg>